<svg width="666" height="677" viewBox="0 0 666 677" fill="none" xmlns="http://www.w3.org/2000/svg">
<ellipse cx="333" cy="650.5" rx="322" ry="26.5" fill="#21A5C4"/>
<path d="M631.461 402.66L584.681 448.83L478.961 553.15L476.821 555.26L464.901 567.02L439.911 542.33L437.711 540.16L392.021 495.03H392.011L377.371 480.56L368.721 472.01L342.961 446.57L339.482 443.13L298.422 402.57C290.264 394.415 283.35 385.106 277.901 374.94C277.401 374.03 276.931 373.11 276.471 372.19C266.734 352.776 262.568 331.043 264.435 309.405C266.302 287.767 274.13 267.069 287.049 249.61C299.968 232.152 317.473 218.615 337.621 210.504C357.768 202.392 379.769 200.023 401.181 203.66H401.192C401.571 203.72 401.942 203.78 402.321 203.86C406.338 204.569 410.314 205.493 414.232 206.63C424.482 209.593 434.279 213.943 443.351 219.56C444.301 220.15 445.242 220.75 446.172 221.36C452.821 225.754 459.009 230.81 464.641 236.45L464.991 236.1L465.341 236.45C468.753 233.039 472.37 229.84 476.172 226.87C477.001 226.22 477.841 225.58 478.681 224.96C491.542 215.477 506.202 208.718 521.765 205.097C537.328 201.476 553.466 201.069 569.192 203.9C573.213 204.608 577.192 205.536 581.111 206.68C582.421 207.05 583.721 207.45 585.011 207.88C586.051 208.22 587.091 208.57 588.121 208.95C596.697 212.015 604.883 216.076 612.511 221.05C614.181 222.14 615.828 223.28 617.451 224.47C631.192 234.459 642.605 247.307 650.904 262.131C659.202 276.954 664.189 293.4 665.52 310.336C666.852 327.272 664.496 344.295 658.617 360.234C652.737 376.172 643.472 390.646 631.461 402.66V402.66Z" fill="#00B9E3"/>
<path opacity="0.15" d="M584.681 448.83L478.961 553.15L476.821 555.26L464.901 567.02L439.911 542.33L437.711 540.16L392.021 495.03C399.361 493.32 410.641 495.67 414.771 497.71C424.561 502.54 432.611 510.47 442.551 514.99C451.428 518.997 461.344 520.092 470.881 518.12C488.701 514.38 502.491 500.6 514.651 487.04C526.811 473.47 539.241 458.91 556.331 452.62C565.341 449.3 575.021 448.55 584.681 448.83Z" fill="#0C7087"/>
<path opacity="0.15" d="M427.081 211.17C420.661 216.24 413.771 220.92 409.601 227.85C406.531 232.97 405.201 238.92 404.211 244.8C402.291 256.24 401.471 267.96 397.711 278.93C393.961 289.9 386.641 300.38 375.791 304.47C369.061 307 361.641 306.86 354.471 306.37C336.781 305.17 318.971 302 303.051 294.21C294.151 289.85 285.521 283.97 275.631 283.32C273.619 283.19 271.598 283.301 269.611 283.65C278.241 256.713 296.298 233.793 320.467 219.099C344.636 204.404 373.295 198.923 401.181 203.66H401.191C401.571 203.72 401.941 203.78 402.321 203.86C406.338 204.569 410.314 205.493 414.231 206.63C418.599 207.893 422.889 209.409 427.081 211.17Z" fill="#0C7087"/>
<path d="M331.592 29.4338C330.808 25.0685 328.867 20.9935 325.972 17.6338C321.854 12.9474 316.854 9.118 311.256 6.36416C305.659 3.61032 299.574 1.98598 293.348 1.58391C287.123 1.18183 280.879 2.00988 274.974 4.02079C269.069 6.0317 263.617 9.18607 258.931 13.3038L258.531 13.6638C252.937 8.24181 246.119 4.24827 238.654 2.02165C231.188 -0.204971 223.296 -0.599047 215.646 0.872833C207.996 2.34471 200.814 5.63916 194.708 10.477C188.602 15.3147 183.752 21.5533 180.57 28.6638C177.646 35.1706 176.305 42.2778 176.658 49.4028C177.011 56.5278 179.047 63.4677 182.6 69.6538C184.194 72.443 186.067 75.0632 188.19 77.4738C190.38 79.9738 249.501 145.744 250.091 146.404C250.161 146.486 250.249 146.552 250.347 146.596C250.446 146.641 250.553 146.664 250.661 146.664C250.681 146.664 250.711 146.654 250.741 146.654C250.783 146.653 250.824 146.643 250.861 146.624C251.056 146.576 251.225 146.454 251.331 146.284L251.641 145.774L252.011 145.144L257.481 136.004C272.651 110.654 293.102 86.7338 318.272 64.9138C319.893 63.5065 321.394 61.968 322.762 60.3138C328.147 53.8752 331.397 45.9214 332.062 37.5538C332.252 34.8381 332.094 32.1093 331.592 29.4338Z" fill="#00B9E3"/>
<path d="M121.363 302.832L118.289 309.982L123.313 335.378L174.569 328.251L174.16 297.285L173.131 290.502L121.363 302.832Z" fill="#FFB6B6"/>
<path d="M94.8813 631.961H106.189L111.571 588.345H94.8813V631.961Z" fill="#FFB6B6"/>
<path d="M126.431 642.742L109.261 630.88V623.134L107.265 623.259L94.8808 623.996L91.195 624.212L88.9155 651.554H97.0243L98.4645 643.899L102.173 651.554H123.686C124.717 651.553 125.72 651.223 126.55 650.612C127.38 650.001 127.992 649.141 128.299 648.157C128.605 647.173 128.589 646.117 128.253 645.143C127.917 644.169 127.279 643.328 126.431 642.742V642.742Z" fill="#2F2E41"/>
<path d="M158.4 631.961H169.709L176.361 567.748L155.112 566.478L158.4 631.961Z" fill="#FFB6B6"/>
<path d="M189.951 642.742L172.781 630.88V623.134L170.603 623.259L158.004 624.019L154.715 624.212L152.436 651.554H160.544L161.984 643.899L165.693 651.554H187.206C188.237 651.553 189.24 651.223 190.07 650.612C190.9 650.001 191.512 649.141 191.819 648.157C192.125 647.173 192.109 646.117 191.773 645.143C191.437 644.169 190.799 643.328 189.951 642.742V642.742Z" fill="#2F2E41"/>
<path d="M90.0813 594.349H90.1252L92.3 523.43C90.8926 520.715 90.1784 517.695 90.2209 514.637C90.2633 511.58 91.0612 508.58 92.5434 505.906L92.8547 505.342L92.0474 501.6C91.0105 496.792 91.4863 491.781 93.4096 487.254L95.4384 421.1C88.1902 374.126 122.733 343.492 122.733 343.492L119.558 318.871L175.43 320.141L174.479 343.492L185.588 381.66C191.435 438.62 191.783 494.422 185.802 548.891C185.79 549.048 185.813 549.205 185.87 549.351C186.477 551.196 186.691 553.148 186.497 555.081C186.304 557.014 185.708 558.884 184.747 560.573C184.498 561.004 184.327 561.475 184.241 561.965C183.009 571.514 182.848 559.435 181.216 568.9L181.533 569.06C182.677 569.455 183.168 571.04 182.63 572.6C182.091 574.16 180.727 575.105 179.583 574.71L149.716 575.029C148.572 574.635 148.081 573.05 148.619 571.49C149.158 569.929 150.522 568.985 151.666 569.38L153.524 570.319L150.415 560.149L149.326 559.131C148.804 558.644 148.398 558.045 148.141 557.379C147.883 556.713 147.779 555.997 147.837 555.285C147.895 554.573 148.113 553.883 148.475 553.268C148.837 552.652 149.334 552.126 149.928 551.73V551.73L150.831 522.202L151.271 509.702L150.365 495.521L146.176 431.736L130.321 510.174L114.125 595.138C114.503 595.479 114.787 595.911 114.949 596.393C115.112 596.875 115.148 597.391 115.054 597.891C114.905 598.589 114.518 599.214 113.958 599.658C113.399 600.103 112.702 600.338 111.988 600.325H90.0022C89.5413 600.325 89.0866 600.218 88.6737 600.013C88.2608 599.808 87.9008 599.511 87.6217 599.144C87.3426 598.777 87.152 598.351 87.0647 597.898C86.9774 597.445 86.9958 596.979 87.1184 596.534C87.3039 595.895 87.6945 595.335 88.2299 594.94C88.7654 594.545 89.416 594.337 90.0813 594.349Z" fill="#2F2E41"/>
<path d="M109.633 182.158C109.631 186.686 110.741 191.145 112.865 195.144C114.989 199.143 118.062 202.559 121.815 205.093C125.567 207.627 129.885 209.201 134.387 209.677C138.89 210.153 143.441 209.516 147.641 207.823C151.84 206.129 155.559 203.431 158.472 199.965C161.385 196.498 163.403 192.37 164.348 187.941C165.293 183.513 165.136 178.921 163.892 174.567C162.648 170.214 160.354 166.232 157.212 162.972L157.079 162.839C156.858 162.607 156.636 162.375 156.404 162.153C156.402 162.153 156.401 162.153 156.4 162.153C156.398 162.152 156.397 162.151 156.396 162.15C156.395 162.149 156.394 162.148 156.394 162.146C156.393 162.145 156.393 162.144 156.393 162.142C156.076 161.911 155.783 161.647 155.519 161.357C151.785 156.139 147.551 151.763 137.295 154.497C122.53 158.432 109.633 166.878 109.633 182.158Z" fill="#2F2E41"/>
<path d="M261.586 170.317C261.649 171.797 261.386 173.272 260.817 174.64C260.248 176.007 259.385 177.233 258.291 178.232C257.197 179.23 255.897 179.976 254.483 180.417C253.069 180.859 251.575 180.985 250.107 180.787L178.768 239.333L167.872 220.181L241.422 168.654C241.918 166.21 243.294 164.033 245.288 162.536C247.283 161.038 249.757 160.324 252.242 160.529C254.728 160.734 257.052 161.844 258.774 163.647C260.496 165.451 261.497 167.824 261.586 170.317V170.317Z" fill="#FFB6B6"/>
<path d="M148.646 256.599C148.646 256.599 150.969 261.421 160.008 254.572C167.244 249.088 201.79 225.43 209.463 215.429C211.073 216.157 212.88 216.328 214.598 215.916C216.316 215.504 217.848 214.532 218.953 213.153L200.079 194.982C194.156 195.382 194.096 199.345 194.603 201.62L179.435 207.648L139.928 230.345L146.904 253.144L148.646 256.599Z" fill="#E6E6E6"/>
<path d="M144.11 211.754C156.921 211.754 167.306 201.369 167.306 188.558C167.306 175.748 156.921 165.363 144.11 165.363C131.299 165.363 120.914 175.748 120.914 188.558C120.914 201.369 131.299 211.754 144.11 211.754Z" fill="#FFB7B7"/>
<path d="M175.752 303.612L175.99 290.673C176.931 289.38 184.825 278.096 183.056 266.823C182.228 261.516 179.347 257.059 174.516 253.589L171.397 246.331L166.781 235.603L153.275 227.562L151.403 223.752L149.861 220.588L131.228 218.728L126.635 224.908L126.544 224.92C122.324 225.879 118.359 227.735 114.92 230.363C111.144 233.228 108.084 236.928 105.978 241.175C103.873 245.421 102.78 250.097 102.785 254.836L102.899 269.874L102.921 272.029L102.933 274.115L114.557 305.404L114.999 306.618L119.558 318.877L118.776 320.17C117.933 321.576 117.622 323.238 117.899 324.855C118.176 326.471 119.022 327.935 120.284 328.981L120.829 336.648L121.815 336.375L127.429 334.81L169.889 322.959C171.488 322.513 172.9 321.562 173.915 320.249C173.951 320.202 173.985 320.152 174.017 320.102C174.185 319.893 174.333 319.669 174.459 319.432C175.423 316.994 175.525 316.336 175.537 315.656C176.946 314.05 177.76 312.008 177.843 309.873C177.926 307.738 177.271 305.64 175.99 303.93L175.752 303.612Z" fill="#E6E6E6"/>
<path d="M119.835 194.639C120.045 194.606 120.255 194.562 120.465 194.528C124.084 193.887 127.702 193.256 131.309 192.603L131.641 184.426L136.011 191.751C145.981 195.059 155.308 193.19 164.083 189.062C166.977 187.689 169.785 186.14 172.492 184.427C173.383 170.598 167.792 161.745 157.389 162.673C157.009 162.707 156.736 162.319 156.404 162.153C156.402 162.153 156.401 162.153 156.4 162.152C156.398 162.152 156.397 162.151 156.396 162.15C156.395 162.149 156.394 162.148 156.394 162.146C156.393 162.145 156.393 162.144 156.393 162.142C155.829 161.877 155.253 161.622 154.678 161.39C150.173 159.629 145.262 159.184 140.514 160.104C135.766 161.025 131.377 163.274 127.857 166.59C120.775 173.351 117.589 184.515 119.835 194.639Z" fill="#2F2E41"/>
<path d="M134.948 155.164C134.716 155.963 134.257 156.677 133.627 157.221C132.997 157.764 132.223 158.113 131.398 158.226C128.28 162.081 124.707 166.164 119.819 166.935C118.422 167.232 116.965 166.98 115.748 166.232C115.6 166.139 115.463 166.028 115.34 165.903C114.183 164.803 114.092 162.592 115.465 161.764C109.318 164.202 105.723 170.836 104.816 177.38C103.908 183.923 105.167 190.535 105.995 197.09C106.823 203.645 107.186 210.528 104.611 216.618C101.572 223.797 94.5862 228.957 86.9652 230.601C86.2847 230.749 85.6043 230.874 84.9124 230.953C84.4528 227.84 83.2977 224.871 81.5329 222.266C81.9997 225.281 81.7233 228.364 80.7277 231.248C74.997 231.168 69.3691 229.714 64.3176 227.006C57.411 223.366 51.6613 217.809 46.9548 211.583C55.0635 217.333 66.2682 219.488 75.0913 214.94C82.9845 210.857 87.6456 202.284 89.6869 193.642C91.7282 184.989 83.1482 174.388 84.0782 165.554C85.0195 156.719 95.6749 149.221 101.504 142.519C105.224 138.243 110.713 135.079 116.372 135.612C118.283 135.794 120.132 136.386 121.794 137.348C123.456 138.309 124.891 139.617 126.002 141.183C127.112 142.749 127.873 144.536 128.23 146.422C128.588 148.308 128.535 150.249 128.076 152.113C129.686 149.833 133.848 150.332 134.88 152.929C135.157 153.645 135.181 154.433 134.948 155.164V155.164Z" fill="#2F2E41"/>
<path d="M120.465 194.528C120.465 194.528 127.337 168.881 156.791 162.961C156.824 162.95 156.935 162.906 157.079 162.839C157.167 162.784 157.278 162.729 157.389 162.673C157.057 162.485 156.736 162.319 156.404 162.153C156.402 162.153 156.401 162.153 156.4 162.152C156.398 162.152 156.397 162.151 156.396 162.15C156.395 162.149 156.394 162.148 156.394 162.146C156.393 162.145 156.393 162.144 156.393 162.142C156.105 161.877 155.817 161.611 155.519 161.357L154.678 161.39C154.678 161.39 125.124 156.709 120.465 194.528Z" fill="#65ABFD"/>
<path d="M194.387 316.751C194.123 316.084 193.682 315.502 193.109 315.068C192.537 314.635 191.857 314.368 191.143 314.295C189.713 314.171 188.272 314.379 186.935 314.904C181.689 316.652 176.978 319.714 173.252 323.8L173.316 326.396C171.566 328.628 170.632 331.391 170.669 334.226C170.706 337.062 171.712 339.799 173.519 341.985C174.54 343.242 175.933 344.144 177.498 344.56C178.281 344.755 179.101 344.735 179.873 344.503C180.645 344.27 181.34 343.833 181.884 343.238C183.451 341.329 182.694 338.452 181.541 336.267C179.529 332.465 176.585 329.237 172.984 326.884C178.996 326.731 184.903 325.263 190.287 322.584C191.48 322.062 192.556 321.306 193.453 320.362C193.896 319.885 194.213 319.305 194.376 318.675C194.539 318.044 194.543 317.383 194.387 316.751V316.751Z" fill="#2F2E41"/>
<path d="M261.994 158.265C261.77 156.762 263.401 155.691 264.011 154.299C264.402 153.057 264.402 151.724 264.01 150.482C263.658 148.795 263.252 147.005 262.031 145.789C260.782 144.74 259.244 144.095 257.621 143.94C253.675 143.252 249.646 143.18 245.678 143.729L248.688 143.912C246.792 143.791 244.891 144.012 243.073 144.564C242.167 144.85 241.347 145.359 240.689 146.045C240.031 146.73 239.555 147.57 239.306 148.487C238.934 150.345 240.204 152.521 242.093 152.68C241.15 152.488 240.169 152.677 239.365 153.205C238.561 153.734 237.999 154.559 237.802 155.501C237.604 156.443 237.788 157.424 238.312 158.231C238.836 159.038 239.659 159.605 240.599 159.807C240.165 160.982 238.872 161.544 237.766 162.13C236.66 162.715 235.495 163.72 235.682 164.958C235.929 166.594 238.117 166.931 239.77 166.858L257.773 166.073C259.323 166.128 260.864 165.808 262.264 165.14C263.598 164.362 264.529 162.656 263.913 161.24C263.436 160.145 262.17 159.446 261.994 158.265Z" fill="#3F3D56"/>
<path d="M53.1992 318.606C50.725 329.476 49.5491 341.799 56.1483 351.526C58.9533 355.699 63.0698 358.817 67.8463 360.388C72.6812 361.821 77.7791 362.134 82.753 361.303C94.0086 359.744 104.012 353.881 115.082 351.605C119.967 350.6 125.151 350.268 129.854 352.202C133.377 353.65 137.088 356.562 137.105 360.716C137.123 364.982 133.418 367.813 129.733 369.125C124.816 370.875 119.706 370.198 114.607 369.977C109.114 369.74 103.513 370.236 98.9505 373.6C95.0261 376.663 92.0165 380.743 90.249 385.397C87.9555 390.963 87.0247 396.948 85.5582 402.755C84.2474 407.976 82.3931 413.046 80.0258 417.881C75.3808 427.357 68.8692 435.797 60.8817 442.695C56.9424 446.085 52.1559 449.539 46.7759 449.85C42.6262 450.09 37.5821 448.346 35.9826 444.143C35.3884 442.328 35.4465 440.363 36.147 438.587C36.8475 436.81 38.1464 435.334 39.8192 434.414C43.3755 432.619 47.2484 435.179 48.3969 438.693C48.6981 439.503 48.8034 440.372 48.7043 441.231C48.6051 442.089 48.3042 442.912 47.8262 443.632C46.7479 445.24 49.3456 446.743 50.4167 445.146C52.9036 441.438 51.6037 436.45 48.558 433.48C47.0722 431.965 45.0859 431.043 42.9699 430.885C40.8539 430.728 38.7528 431.345 37.0588 432.623C35.2988 433.963 33.9683 435.788 33.2306 437.873C32.4928 439.958 32.3799 442.214 32.9057 444.363C34.185 448.979 38.7214 451.916 43.2514 452.643C48.8456 453.542 54.2294 451.343 58.7451 448.167C63.2759 444.896 67.3955 441.091 71.0145 436.834C78.372 428.372 83.9031 418.483 87.2611 407.785C90.5632 397.204 90.8034 383.225 100.615 376.079C105.664 372.402 111.851 372.81 117.77 373.148C122.996 373.446 128.094 373.391 132.888 371.026C136.846 369.072 140.04 365.467 140.106 360.873C140.173 356.236 136.88 352.507 133.001 350.395C122.753 344.814 110.446 349.315 100.378 353.043C90.2539 356.793 78.6943 361.194 67.9346 357.248C62.9687 355.319 58.9705 351.498 56.8168 346.625C54.2113 341.1 53.8406 334.831 54.4425 328.834C54.7973 325.66 55.3482 322.51 56.0921 319.404C56.52 317.524 53.6283 316.721 53.1993 318.606L53.1992 318.606Z" fill="#3F3D56"/>
<path d="M102.885 379.095C101.964 377.935 101.308 376.587 100.964 375.146C100.62 373.705 100.596 372.207 100.894 370.756C101.191 369.304 101.804 367.936 102.687 366.748C103.571 365.559 104.705 364.578 106.008 363.875L90.7593 318.73L103.211 270.889L123.29 279.966L110.9 316.051L120.169 368.576C121.206 370.845 121.374 373.415 120.642 375.799C119.911 378.183 118.33 380.216 116.199 381.512C114.069 382.809 111.537 383.279 109.083 382.833C106.629 382.388 104.424 381.057 102.885 379.094L102.885 379.095Z" fill="#FFB6B6"/>
<path d="M121.264 231.47C121.264 231.47 116.549 228.938 113.269 239.794C110.643 248.485 92.7741 295.675 92.4521 308.276C90.7221 308.635 89.1607 309.559 88.0138 310.903C86.8669 312.247 86.1997 313.934 86.1174 315.699L112.07 319.29C116.624 315.483 114.342 312.242 112.593 310.701L121.432 295.729L139.907 255.308L124.706 233.24L121.264 231.47Z" fill="#E6E6E6"/>
<path d="M71.5881 288.114C68.6214 298.019 64.149 307.408 58.3279 315.954C56.8878 318.054 55.3745 320.101 53.7878 322.094C52.5545 319.853 51.0608 317.765 49.3377 315.874C43.2876 309.224 35.1775 304.874 27.3074 300.514C19.4373 296.154 11.4472 291.474 5.88712 284.404C3.3921 281.221 1.60557 277.543 0.64705 273.614C-0.612968 268.284 -0.132974 262.724 2.97707 258.274C7.49714 251.804 16.5073 249.524 24.1674 251.394C31.8375 253.264 38.2576 258.594 43.2376 264.714C41.6076 257.194 49.5377 249.934 57.2078 250.594C64.8779 251.264 71.028 257.964 73.0681 265.384C75.1182 272.794 73.7881 280.734 71.5881 288.114Z" fill="#00B9E3"/>
<path d="M219.856 12.9901C215.792 13.6536 211.905 15.136 208.431 17.3473C204.957 19.5586 201.969 22.4526 199.647 25.8538C197.294 29.3654 195.727 33.3433 195.052 37.516C194.376 41.6888 194.609 45.9581 195.734 50.0326C196.998 54.7573 199.398 59.101 202.726 62.6849C204.044 64.1012 206.162 61.9762 204.848 60.5635C202.227 57.688 200.246 54.2891 199.035 50.5914C197.825 46.8937 197.413 42.9812 197.827 39.1125C198.272 35.3945 199.503 31.8137 201.439 28.6084C203.375 25.403 205.972 22.6465 209.055 20.522C212.511 18.1 216.481 16.512 220.654 15.8829C222.556 15.5964 221.748 12.7052 219.856 12.99V12.9901Z" fill="#3F3D56"/>
<g opacity="0.2">
<path opacity="0.2" d="M322.762 60.3139C321.394 61.968 319.892 63.5066 318.272 64.9139C293.101 86.7339 272.651 110.654 257.481 136.004L252.011 145.144L251.641 145.774C250.352 144.803 249.227 143.632 248.311 142.304C244.811 137.214 244.791 130.524 245.651 124.404C248.252 106.054 257.587 89.3279 271.841 77.4814C286.094 65.6349 304.245 59.5154 322.762 60.3139V60.3139Z" fill="#0C7087"/>
</g>
<g opacity="0.2">
<path opacity="0.2" d="M58.3278 315.954C56.8878 318.054 55.3744 320.1 53.7877 322.094C52.5544 319.853 51.0607 317.765 49.3377 315.874C43.2876 309.224 35.1775 304.874 27.3073 300.514C19.4372 296.154 11.4471 291.474 5.88704 284.404C3.39202 281.221 1.6055 277.542 0.646973 273.614C18.3391 276.066 34.5959 284.691 46.5476 297.964C51.3327 303.352 55.3016 309.413 58.3278 315.954V315.954Z" fill="#0C7087"/>
</g>
<path d="M250.081 145.554C252.29 145.554 254.081 143.763 254.081 141.554C254.081 139.345 252.29 137.554 250.081 137.554C247.871 137.554 246.081 139.345 246.081 141.554C246.081 143.763 247.871 145.554 250.081 145.554Z" fill="#3F3D56"/>
</svg>
